<svg xmlns="http://www.w3.org/2000/svg" viewBox="0 0 101.01 68.56"><g id="Capa_2" data-name="Capa 2"><g id="Capa_1-2" data-name="Capa 1"><path d="M35.2,68.56l-1.62,0c-16-.52-24.3-9-28.45-16A39.3,39.3,0,0,1,0,37.42v-34a3.38,3.38,0,0,1,6.76,0V37C7,39,9.87,61,33.8,61.77c22,.71,26.42-15.58,26.59-16.27A3.38,3.38,0,0,1,67,47.1a28.17,28.17,0,0,1-6.3,11.2C56.38,63,48.54,68.56,35.2,68.56Z"/><path d="M65.17,40.18a3.37,3.37,0,0,1-3.36-3.1c-.3-3.77,2.32-14.74,9.76-23,6.59-7.36,15.33-11.26,26-11.58a3.38,3.38,0,0,1,.21,6.76C89.05,9.48,82,12.6,76.66,18.5c-6.45,7.16-8.24,16.34-8.11,18a3.39,3.39,0,0,1-3.11,3.63Z"/><path d="M63.26,18.81l.55-14.24s3.71-2.81,6.71.26l-.25,6.46Z"/><path d="M63,19.37,63.6,4.46l.08-.06s3.9-2.88,7,.28l.06.06-.25,6.64ZM64,4.68l-.52,13.57,6.57-7,.24-6.3C67.69,2.32,64.56,4.29,64,4.68Z"/><path d="M25.56,63.67l-1.22-1.18c4-4.19,3.7-11.05-.73-15.3S12.32,42.91,8.3,47.1L7.08,45.93c4.66-4.86,12.61-4.85,17.7,0S30.23,58.8,25.56,63.67Z"/><path d="M42.7,33.88a5.11,5.11,0,1,1,5.11-5.1A5.11,5.11,0,0,1,42.7,33.88Zm0-8.52a3.42,3.42,0,1,0,3.42,3.42A3.42,3.42,0,0,0,42.7,25.36Z"/><path d="M12.28,51.88l-.43-1.64a7,7,0,0,0,3.74-3.37c2.08-3.6,6.47-2.78,6.66-2.75l-.32,1.66c-.14,0-3.4-.61-4.87,1.93A8.72,8.72,0,0,1,12.28,51.88Z"/><path d="M14.4,56.49l-.08-1.69c.12,0,3.12-.23,4.84-4.08a5,5,0,0,1,3-2.94,6.14,6.14,0,0,1,4.47.52l-.83,1.48.42-.74-.41.74a4.46,4.46,0,0,0-3.13-.39,3.39,3.39,0,0,0-1.95,2C18.55,56.25,14.57,56.48,14.4,56.49Z"/><path d="M24.82,29.4,22,22.93l1.91-6.12,3.22,5.13Zm-1-6.57.76,1.72.72-2.37-.85-1.36Z"/><path d="M42.21,53.26,40.6,49.6l1.09-3.47L43.5,49Zm-.71-3.71.56,1.28.52-1.68-.64-1Z"/><path d="M43.07,30.66a21.11,21.11,0,0,1-7.6-1.48l-.25-.1,0-.57.25-.13c.45-.22,4.62-2.08,14.17,0l1.16.25-1.05.54A14.42,14.42,0,0,1,43.07,30.66Zm-6.23-1.88c2.06.67,6.86,1.84,11.31.15C42,27.77,38.45,28.32,36.84,28.78Z"/></g></g></svg>